<svg xmlns="http://www.w3.org/2000/svg" viewBox="0 0 64 64"><defs><filter id="gl" x="-40%" y="-40%" width="180%" height="180%"><feGaussianBlur stdDeviation="2.2" result="b"/><feMerge><feMergeNode in="b"/><feMergeNode in="SourceGraphic"/></feMerge></filter></defs><g filter="url(#gl)"><circle cx="32" cy="30" r="11" fill="#FFE600"/><line x1="32" y1="8" x2="32" y2="15" stroke="#FFE600" stroke-width="4" stroke-linecap="round" transform="rotate(0 32 30)"/><line x1="32" y1="8" x2="32" y2="15" stroke="#FFE600" stroke-width="4" stroke-linecap="round" transform="rotate(45 32 30)"/><line x1="32" y1="8" x2="32" y2="15" stroke="#FFE600" stroke-width="4" stroke-linecap="round" transform="rotate(90 32 30)"/><line x1="32" y1="8" x2="32" y2="15" stroke="#FFE600" stroke-width="4" stroke-linecap="round" transform="rotate(135 32 30)"/><line x1="32" y1="8" x2="32" y2="15" stroke="#FFE600" stroke-width="4" stroke-linecap="round" transform="rotate(180 32 30)"/><line x1="32" y1="8" x2="32" y2="15" stroke="#FFE600" stroke-width="4" stroke-linecap="round" transform="rotate(225 32 30)"/><line x1="32" y1="8" x2="32" y2="15" stroke="#FFE600" stroke-width="4" stroke-linecap="round" transform="rotate(270 32 30)"/><line x1="32" y1="8" x2="32" y2="15" stroke="#FFE600" stroke-width="4" stroke-linecap="round" transform="rotate(315 32 30)"/></g></svg>